<svg xmlns="http://www.w3.org/2000/svg" viewBox="0 0 128 128">
  <defs>
    <linearGradient id="diamondGradient" x1="12%" x2="88%" y1="18%" y2="82%">
      <stop offset="0%" stop-color="#4cc0ff" />
      <stop offset="50%" stop-color="#3584ff" />
      <stop offset="100%" stop-color="#1e4dd8" />
    </linearGradient>
    <linearGradient id="leafGradient" x1="0%" x2="100%" y1="0%" y2="100%">
      <stop offset="0%" stop-color="#5cd882" />
      <stop offset="100%" stop-color="#2f9e4a" />
    </linearGradient>
  </defs>
  <g fill="none" fill-rule="evenodd">
    <path
      d="M42 8c-2.8 18.5 6.7 31.4 24.2 36.4 5.5-15.4-3.2-33.2-24.2-36.4z"
      fill="url(#leafGradient)"
      transform="translate(3 0)"
    />
    <path
      d="M86 8c-21 3.2-29.7 21-24.2 36.4C79.3 39.4 88.8 26.5 86 8z"
      fill="url(#leafGradient)"
      transform="translate(-3 0)"
    />
    <path
      d="M64 118c-3.2 0-6.2-1.3-8.3-3.7L17.4 70.8a12 12 0 0 1-.5-15.6L52.2 17A12 12 0 0 1 61 12h6a12 12 0 0 1 8.7 5l35.3 48.2a12 12 0 0 1-.5 15.6l-38.2 43.5A12 12 0 0 1 64 118z"
      fill="url(#diamondGradient)"
      stroke="#0f1f60"
      stroke-width="4"
      stroke-linejoin="round"
    />
    <path
      d="M64 97.5l20.8-23.4-9.9-30.3h-21l-9.9 30.3L64 97.5z"
      fill="#f5fbff"
      opacity="0.85"
    />
    <path
      d="M64 97.5L43.2 74.1l9.9-30.3H64v53.7z"
      fill="#d8ecff"
      opacity="0.6"
    />
    <circle cx="64" cy="68" r="6" fill="#ffffff" opacity="0.9" />
  </g>
</svg>
